<svg xmlns="http://www.w3.org/2000/svg" viewBox="0 0 24 24" role="img" aria-label="Discord">
  <path fill="currentColor" d="M20.32 4.37A19.8 19.8 0 0 0 15.36 2c-.21.38-.46.9-.63 1.3a18.4 18.4 0 0 0-5.46 0A13.5 13.5 0 0 0 8.63 2a19.7 19.7 0 0 0-4.96 2.38C.54 9.06-.31 13.62.11 18.11a19.9 19.9 0 0 0 6.08 3.07c.49-.66.92-1.36 1.29-2.1-.71-.27-1.39-.6-2.03-.97.17-.12.34-.25.5-.39a14.2 14.2 0 0 0 12.1 0l.5.39c-.64.38-1.32.7-2.03.97.37.74.8 1.45 1.29 2.1a19.9 19.9 0 0 0 6.08-3.07c.5-5.21-.84-9.73-3.57-13.74ZM8.02 15.35c-1.18 0-2.15-1.08-2.15-2.41s.95-2.42 2.15-2.42c1.2 0 2.17 1.09 2.15 2.42 0 1.33-.95 2.41-2.15 2.41Zm7.96 0c-1.18 0-2.15-1.08-2.15-2.41s.95-2.42 2.15-2.42c1.2 0 2.17 1.09 2.15 2.42 0 1.33-.95 2.41-2.15 2.41Z" />
</svg>
